# xmcd
#
# Track frame offsets:
#	150
#	10353
#	22221
#	34576
#	49917
#	60338
#	72290
#	82617
#	92856
#	105310
#	117536
#	132437
#	144321
#
# Disc length: 2060 seconds
#
# Revision: 1
# Processed by: cddbd v1.5.2PL0 Copyright (c) Steve Scherf et al.
# Submitted via: audiograbber 1.83.01
#
DISCID=a9080a0d
DTITLE=Ricky Skaggs - Best Of The Sugar Hill Years
DYEAR=1998
DGENRE=Blue Grass
TTITLE0=Daniel Prayed
TTITLE1=I'll Stay Around
TTITLE2=Bury Me Beneath The Weeping Willow
TTITLE3=Little Cabin Home On The Hill
TTITLE4=Drifting Too Far From The Shore
TTITLE5=Little Community Church
TTITLE6=I'm Not Broke, But I'm Badly Bent
TTITLE7=Head Over Heels In Love With You
TTITLE8=The Old Cross Roads
TTITLE9=No Mother Or Dad
TTITLE10=If I Needed You
TTITLE11=Where The Soul Of Man Never Dies
TTITLE12=I Know What It Means To Be Lonesome
EXTD=
EXTT0=
EXTT1=
EXTT2=
EXTT3=
EXTT4=
EXTT5=
EXTT6=
EXTT7=
EXTT8=
EXTT9=
EXTT10=
EXTT11=
EXTT12=
PLAYORDER=
